<?xml version="1.0" encoding="UTF-8"?>
<!-- Generator: Adobe Illustrator 19.2.0, SVG Export Plug-In . SVG Version: 6.00 Build 0)  -->
<svg version="1.1" id="Layer_1" inkscape:version="0.91 r13725" sodipodi:docname="logoVSK.svg" xmlns:cc="http://creativecommons.org/ns#" xmlns:dc="http://purl.org/dc/elements/1.1/" xmlns:inkscape="http://www.inkscape.org/namespaces/inkscape" xmlns:rdf="http://www.w3.org/1999/02/22-rdf-syntax-ns#" xmlns:sodipodi="http://sodipodi.sourceforge.net/DTD/sodipodi-0.dtd" xmlns:svg="http://www.w3.org/2000/svg" xmlns="http://www.w3.org/2000/svg" xmlns:xlink="http://www.w3.org/1999/xlink" x="0px" y="0px" viewBox="0 0 169 45.5" style="enable-background:new 0 0 169 45.5;" xml:space="preserve">
<style type="text/css">
	.st0{fill:#006FBA;}
	.st1{fill:#52B9E9;}
</style>
<sodipodi:namedview bordercolor="#666666" borderopacity="1" gridtolerance="10" guidetolerance="10" id="namedview49" inkscape:current-layer="Layer_1" inkscape:cx="76" inkscape:cy="31.6" inkscape:pageopacity="0" inkscape:pageshadow="2" inkscape:window-height="1028" inkscape:window-maximized="1" inkscape:window-width="1608" inkscape:window-x="64" inkscape:window-y="-8" inkscape:zoom="2.5" objecttolerance="10" pagecolor="#ffffff" showgrid="false">
	</sodipodi:namedview>
<g id="g3">
	<path id="path5" class="st0" d="M43.3,21.3h9.3v8.4l5.1-8.4H68l-7.9,11l8.1,12.2H57.5l-4.9-8.8v8.8h-9.3V21.3z"/>
	<path id="path7" class="st0" d="M41,43.8c-1.5,0.8-3.5,1.4-6.2,1.4c-7.6,0-13-4.9-13-12.3c0-8.4,6.9-12.3,12.8-12.3   c1.9,0,4.5,0.5,6.4,1.8v8.1c-1.4-1.8-3.5-2.5-5.1-2.5c-3.5,0-5.1,2.3-5.1,5.1c0,3,2.2,4.7,5.1,4.7c2.1,0,3.9-0.9,5.2-2.1   C41,35.7,41,43.8,41,43.8z"/>
	<path id="path9" class="st0" d="M9.3,30v-3.3h0.9c1.6,0,2.1,0.8,2.1,1.6c0,0.8-0.4,1.6-2.1,1.6L9.3,30L9.3,30z M0,21.2v23.3h13.8   c6.4,0,7.8-4.1,7.8-6.5c0-3.2-2.2-5.4-5.2-5.9v-0.1c1.9-0.6,4.1-2.2,4.1-4.9c0-1.8-0.7-5.9-7.4-5.9C13.1,21.2,0,21.2,0,21.2z    M9.3,38.8v-3.5h1.1c0.9,0,2.3,0.2,2.3,1.7c0,1.6-1.5,1.8-2.3,1.8L9.3,38.8L9.3,38.8z"/>
	<polygon id="polygon11" class="st1" points="122.6,24.3 119.9,24.4 119.7,23.7 117.1,23.6 117.1,23.1 114.4,23.1 114.8,24    116,24.2 115.9,23.8 117,24.6 118.8,25 120,25 123.1,24.6  "/>
	<path id="path13" class="st1" d="M115.8,22l-1.3-0.2c0,0,0-0.4-0.5-0.7c-0.5-0.2-0.4,0-0.4,0l-0.5-0.3l-0.9-0.1l-0.1-0.6l-1.1-0.1   l0-0.3l-0.9-0.1l-0.4-0.3l0.1-0.4l-0.2-0.3l-1.1-0.5l-0.9-0.3l-0.6-0.7l-0.7-0.6l-0.9-0.9l-2.3-0.8l-2.1-1.5l-0.9-0.4l-0.9-0.4   l-1.9-1l-2.9-1.6l-6.3-3l-1.8-0.8c-1-0.4-1.2-0.7-1.2-0.8c-0.9-0.2-1.2-0.4-1.7-0.8c-0.5,0-1.6-0.6-1.9-0.9c0,0-1.9-0.5-2-0.7   c0-0.1-4.8-1.8-5.4-1.9c-0.4,0-1.6-0.2-1.8-0.3c-0.2,0-0.9-0.2-1.2-0.3c-1-0.1-2-0.3-3-0.3c-0.7,0-1.2,0-1.8-0.2   c-0.2,0.1-1.7-0.1-2.3,0.3c-0.6,0-2,0.3-2.4,0.5c-0.8,0-2.2,0.9-2.7,1.1c-0.2,0.1-0.5,0.2-0.7,0.3c1.5,0.5,3.2,1.1,3.2,1.2   c0.1,0.1,2,0.6,2,0.7C63.9,4.4,65,5,65.5,5c0.5,0.5,0.8,0.6,1.7,0.8c0,0.1,0.2,0.4,1.2,0.8l1.8,0.8l6.3,3l2.9,1.6l1.9,1l0.9,0.4   l0.9,0.4l0.7,0.5l1.4,0.5l3.1,1l3.8,1.4l1.4,0.5l1.4,0.4l0.7-0.1l0.7,0.2l0.8,0.7l0.8-0.3l0.6,0.1l0.4,0.6l0.3,0.3l0.7,0.2l0.7,0.1   l0.8-0.2l1,0.1l0.3,0.6l1.4,0.2l1,0.1l1,0.1l0.8,0.3l0.7,0.7l1,0.2l2.6,0.4l2.3-0.3l1.5,0.1L115.8,22z"/>
	<g id="g15">
		<polygon id="polygon17" class="st0" points="94.9,25.7 97.7,25.7 97.7,26.2 100.2,26.4 100.5,27 103.1,26.9 103.7,27.3     100.6,27.7 99.4,27.6 97.6,27.2 96.5,26.5 96.6,26.8 95.4,26.7   "/>
		<path id="path19" class="st0" d="M95.2,24.6c0,0,0-0.4-0.5-0.7c-0.5-0.2-0.4,0-0.4,0l-0.5-0.3L93,23.4L93,22.8l-1.1-0.1l0-0.3    L91,22.3L90.6,22l0.1-0.4l-0.2-0.3l-1.1-0.5l-0.9-0.3l-0.6-0.7l-0.7-0.6l-0.9-0.9l-2.3-0.8L81.9,16l-0.9-0.4l-0.9-0.4l-1.9-1    l-2.9-1.6l-6.3-3l-1.8-0.8c-1-0.4-1.2-0.7-1.2-0.8c-0.9-0.2-1.2-0.4-1.7-0.8c-0.5,0-1.6-0.6-1.9-0.9c0,0-1.9-0.5-2-0.7    c0-0.1-4.8-1.8-5.4-1.9c-0.4,0-1.6-0.2-1.8-0.3c-0.2,0-0.9-0.2-1.2-0.3c-1-0.1-2-0.3-3-0.3c-0.7,0-1.2,0-1.8-0.2    c-0.2,0.1-1.7-0.1-2.3,0.3c-0.6,0-2,0.3-2.4,0.5c-0.8,0-2.2,0.9-2.7,1.1c-0.4,0.2-0.9,0.4-1.3,0.6c-0.2,0.1-2.8,1.4-3,1.6    c0,0.1-2.6,1.6-2.8,1.8c-0.1,0.1-0.8,0.4-1,0.6c-0.2,0.2-0.9,0.8-1.1,0.9c-0.1,0.2-0.8,0.5-0.9,0.7c-0.2,0.2-1,0.6-1.1,0.7    c0,0-0.5,0.4-0.8,0.7c-0.1,0.2-0.3,0.4-0.4,0.6c-0.2,0.1-0.9,0.5-1.1,0.6c0,0.4,0,1.1-0.6,0.9c0,0-0.8,0.5-0.8,0.4    c0.1,0-0.4,0.7-0.8,1.2c-0.2,0.3-1.4,0.7-1.6,1c-0.5,0.6-1,1.2-1.5,1.8c0,0,0,0,0,0c0,0,0,0,0.1,0c0,0.1,0.4,0.1,0.5,0.2    c0.1,0.2-0.2,0.4-0.2,0.7c0,0,0,0,0.1,0c0,0,0,0,0,0c0.3,0,0.7-0.4,1-0.5c0.2-0.1,0.5-0.2,0.7-0.3c0.4-0.2,0.8-0.5,1.3-0.7    c3.1-1.7,6.3-3.3,9.4-5c1.5-0.8,2.7-1.5,4.4-2.4c0.4-0.2,1.9-1.2,3-1.3c1.4-0.1,3.2,0.3,3.6,0.5c0.4,0.2,1.5,0.7,2.1,0.8    c0.2,0.1,0.5,0.3,0.6,0.3c0.1,0.1,1.1,0.2,1.6,0.4c0.2,0.1,0.4,0.2,0.6,0.3c0.9,0.3,3.1,0.8,3.9,1c0.7,0.2,1.1,0.6,1.4,0.7    c0.5,0.3,0.6,0.2,1.1,0.4c0.9,0.1,1.4,0.4,1.4,0.4c0.3,0.1,0.4,0.2,0.7,0.3c0.2,0,0.7,0.4,0.8,0.4c0.2,0,1.6,0.5,1.8,0.5    c0.2,0,1.2,0.4,1.4,0.5c0.3,0.1,0.6,0.2,0.9,0.3l2.9,1.1l3.1,1l3.8,1.4l1.4,0.5l1.4,0.4l0.7-0.1l0.7,0.2l0.8,0.7l0.8-0.3l0.6,0.1    l0.4,0.6l0.3,0.3l0.7,0.2l0.7,0.1l0.8-0.2l1,0.1l0.3,0.6l1.4,0.2l1,0.1l1,0.1l0.8,0.3l0.7,0.7l1,0.2l2.6,0.4l2.3-0.3l1.5,0.1    l0.5-0.4L95.2,24.6z"/>
	</g>
	<path id="path21" class="st0" d="M76,43.6c-0.4,0.2-1,0.4-1.8,0.4c-1.3,0-2.1-0.4-2.7-1c-0.9-0.8-1.2-1.7-1.2-2.8   c0-1.3,0.6-2.3,1.2-2.8c0.7-0.7,1.7-1,2.7-1c0.5,0,1.2,0.1,1.8,0.4v1.7c-0.7-0.8-1.5-0.8-1.8-0.8c-1.5,0-2.5,1.2-2.5,2.5   c0,1.6,1.3,2.5,2.5,2.5c0.7,0,1.3-0.3,1.7-0.8C76,42,76,43.6,76,43.6z"/>
	<path id="path23" class="st0" d="M80.2,43.9h-1.5v-6h-1.7v-1.2h4.8v1.2h-1.7L80.2,43.9L80.2,43.9z"/>
	<path id="path25" class="st0" d="M84.8,37.8h0.5c0.3,0,0.7,0,1,0.2c0.2,0.2,0.4,0.4,0.4,0.8c0,0.3-0.1,0.6-0.4,0.8   C86,40,85.7,40,85.4,40h-0.6V37.8z M83.3,36.6v7.3h1.5v-2.7h0.9c0.9,0,1.5-0.2,1.9-0.6c0.6-0.6,0.6-1.3,0.6-1.6   c0-0.5-0.2-1.2-0.8-1.8c-0.5-0.5-1.1-0.6-2-0.6L83.3,36.6L83.3,36.6z"/>
	<path id="path27" class="st0" d="M91.3,41.2l1.1-2.6l1,2.6H91.3z M94.5,43.9H96l-3.1-7.4h-1.1l-3.2,7.4h1.6l0.7-1.5h3L94.5,43.9z"/>
	<path id="path29" class="st0" d="M99.3,40.1l-2.2-3.4h1.7l1.3,2.2l1.4-2.2h1.7l-2.3,3.4l2.5,3.8h-1.7l-1.6-2.7l-1.7,2.7h-1.7   L99.3,40.1z"/>
	<path id="path31" class="st0" d="M108.8,42.8c-1.5,0-2.5-1-2.5-2.5c0-1.5,1-2.5,2.5-2.5c1.5,0,2.5,1,2.5,2.5   C111.3,41.7,110.2,42.8,108.8,42.8z M108.8,36.5c-2.3,0-4,1.6-4,3.8s1.6,3.8,4,3.8c2.3,0,4-1.6,4-3.8S111.1,36.5,108.8,36.5z"/>
	<path id="path33" class="st0" d="M116.1,37.8h0.4c0.6,0,1.1,0.2,1.1,0.9c0,0.9-0.9,0.9-1.1,0.9h-0.4   C116.1,39.6,116.1,37.8,116.1,37.8z M114.7,36.6v7.3h2.5c0.6,0,1.3-0.1,1.9-0.6c0.5-0.4,0.6-1,0.6-1.5c0-0.4-0.1-0.9-0.5-1.4   c-0.2-0.2-0.5-0.4-1-0.5c0.2-0.1,0.8-0.5,0.8-1.4c0-0.6-0.3-1.2-0.7-1.5c-0.6-0.5-1.4-0.5-1.8-0.5L114.7,36.6L114.7,36.6z    M116.1,40.7h0.5c0.3,0,0.7,0,1,0.1c0.5,0.2,0.5,0.6,0.5,0.8c0,0.3-0.1,0.6-0.5,0.8c-0.3,0.2-0.7,0.2-1,0.2h-0.6V40.7z"/>
	<path id="path35" class="st0" d="M125.2,42.8c-1.5,0-2.5-1-2.5-2.5c0-1.5,1-2.5,2.5-2.5c1.4,0,2.5,1,2.5,2.5   C127.7,41.7,126.7,42.8,125.2,42.8z M125.2,36.5c-2.3,0-4,1.6-4,3.8s1.6,3.8,4,3.8c2.3,0,4-1.6,4-3.8S127.5,36.5,125.2,36.5z"/>
	<path id="path37" class="st0" d="M132.5,36.6v4.9l4.1-5h1v7.4h-1.5V39l-4.1,5h-1v-7.4C131.1,36.6,132.5,36.6,132.5,36.6z    M133.4,34.3c0.2,0.6,0.9,0.6,1,0.6c0.1,0,0.8,0,1-0.6l1,0.4c-0.3,0.7-1,1.2-2,1.2c-1,0-1.7-0.5-2-1.2L133.4,34.3z"/>
	<path id="path39" class="st0" d="M145.2,37.8h2.2v4.8h-3c0.2-0.2,0.4-0.5,0.6-0.9c0.1-0.3,0.3-0.9,0.3-2V37.8z M143.8,36.6v3.2   c0,1-0.1,1.5-0.3,1.9c-0.2,0.5-0.6,1-1.2,1v2.9h1.3v-1.6h4.6v1.6h1.3v-2.9h-0.8v-6H143.8z"/>
	<path id="path41" class="st0" d="M154.7,42.8c-1.5,0-2.5-1-2.5-2.5c0-1.5,1-2.5,2.5-2.5c1.5,0,2.5,1,2.5,2.5   C157.2,41.7,156.2,42.8,154.7,42.8z M154.7,36.5c-2.3,0-4,1.6-4,3.8s1.6,3.8,4,3.8c2.3,0,4-1.6,4-3.8S157.1,36.5,154.7,36.5z"/>
	<path id="path43" class="st0" d="M160.2,43.9l1.4-7.4h1l2,4.7l2.1-4.7h1l1.3,7.4h-1.5l-0.7-4.5l-2,4.6h-0.4l-2-4.6l-0.8,4.5H160.2z   "/>
</g>
</svg>